<svg width="45" height="45" viewBox="0 0 45 45" fill="none" xmlns="http://www.w3.org/2000/svg">
<path d="M22.6328 3.80316C25.4788 3.80316 28.1697 4.90708 30.1705 6.92518L37.7944 14.5491C41.9514 18.7061 41.9514 25.4676 37.7944 29.6418L30.1705 37.2657C28.1524 39.2838 25.4788 40.3877 22.6328 40.3877C19.7868 40.3877 17.096 39.2838 15.0951 37.2657L7.47118 29.6418C3.31423 25.4848 3.31423 18.7233 7.47118 14.5491L15.0951 6.92518C17.1132 4.90708 19.7868 3.80316 22.6328 3.80316ZM22.6328 0.0601807C18.9416 0.0601807 15.2676 1.45733 12.4561 4.26888L4.83212 11.8928C-0.790964 17.5159 -0.790964 26.6232 4.83212 32.2463L12.4561 39.8703C15.2676 42.6818 18.9416 44.0789 22.6328 44.0789C26.324 44.0789 29.998 42.6818 32.8096 39.8703L40.4335 32.2463C46.0566 26.6232 46.0566 17.5159 40.4335 11.8928L32.8096 4.26888C29.998 1.45733 26.3068 0.0601807 22.6328 0.0601807Z" fill="#FF4A17"/>
<path d="M12.3698 30.1075L9.57549 27.3132C9.21326 26.882 7.76437 25.0191 7.90236 22.2766C8.0576 19.189 10.1619 17.3607 10.5069 17.0502L18.5276 9.02953C18.9588 8.6673 21.0114 7.09767 23.9437 7.3564C26.2205 7.56339 27.7211 8.7708 28.2386 9.21926L30.6707 11.8238L26.2895 16.0153L23.4952 14.1524L25.9273 11.7203C25.2891 11.2201 24.2369 10.5302 22.9432 10.5992C21.9773 10.6509 21.2874 11.1166 19.0278 13.2037C17.4754 14.6526 16.5612 15.584 14.4741 17.7746C12.4905 19.8445 11.5073 20.8967 11.3866 21.9661C11.2314 23.2942 11.8523 24.4499 12.318 25.1398L17.1649 20.4827L15.1123 18.4301L24.5646 17.7746L12.4043 30.0902L12.3698 30.1075Z" fill="#FF4A17"/>
<path d="M33.1545 14.3077L35.9488 17.102C36.3111 17.5332 37.7599 19.3961 37.622 22.1386C37.4667 25.2261 35.3624 27.0545 35.0174 27.365L26.9967 35.3856C26.5655 35.7478 24.5129 37.3175 21.5806 37.0588C19.3038 36.8518 17.8032 35.6444 17.2857 35.1959L14.8536 32.5913L19.2348 28.3999L22.0291 30.2628L19.597 32.6948C20.2352 33.195 21.2874 33.885 22.5811 33.816C23.547 33.7642 24.2369 33.2985 26.4965 31.2114C28.0489 29.7625 28.9631 28.8311 31.0502 26.6405C33.0338 24.5707 34.017 23.5185 34.1377 22.4491C34.293 21.1209 33.672 19.9653 33.2063 19.2753L28.3594 23.9325L30.412 25.9851L20.9597 26.6405L33.12 14.3249L33.1545 14.3077Z" fill="#FF4A17"/>
</svg>
